<svg xmlns="http://www.w3.org/2000/svg" viewBox="0 0 259.4 303.3"><defs><style>.a{fill:#1d1d1b;}</style></defs><path class="a" d="M5.8,153.1c.8-40.3,11.8-78,39.1-109.7A99.9,99.9,0,0,1,88.3,14.2c15.3-5.2,23.7.9,20.9,16.7-6.8,37.5.9,73.4,9.7,109.3,6.1,24.6,12.4,49.2,14.3,74.7a194.84,194.84,0,0,1-3.9,58,68.64,68.64,0,0,1-2.4,7.7c-5.4,14.5-15.6,20-30.8,16.9-22.6-4.7-39.3-18.2-53.3-35.6C17.4,230.4,6.5,193.9,5.8,153.1Z"/><path class="a" d="M253.6,153c-1,43.8-13,83-42.9,115.4-8.9,9.7-18.9,18.2-31.3,22.9a59.54,59.54,0,0,1-18.7,3.5c-8.4.2-12.5-4.2-12.5-12.6a73.88,73.88,0,0,1,2-18.1c5.5-22.4,4.7-45,3.3-67.7-1.9-30.3-10.9-59.1-19.2-88.1-6-20.9-10-42.2-9.4-64.1a85.73,85.73,0,0,1,3.4-22.5c4.2-13.7,14.1-18.9,29.1-16,16.5,3.1,30,12.2,42.3,23,32.7,28.6,48.6,65.6,52.9,108.1C253.1,142.4,253.3,148,253.6,153Z"/></svg>